<svg width="12" height="22" viewBox="0 0 12 22" fill="none" xmlns="http://www.w3.org/2000/svg">
<path d="M8.3937 0.800003C7.08852 0.800003 5.8368 1.34468 4.9139 2.31422C3.991 3.28376 3.47252 4.59873 3.47252 5.96987V8.84822H0.839018C0.707077 8.84822 0.599609 8.96 0.599609 9.09973V12.9003C0.599609 13.0389 0.706013 13.1518 0.839018 13.1518H3.47252V20.9485C3.47252 21.0871 3.57892 21.2 3.71192 21.2H7.32966C7.4616 21.2 7.56907 21.0882 7.56907 20.9485V13.1518H10.226C10.3356 13.1518 10.4313 13.0735 10.4579 12.9618L11.3624 9.16121C11.3713 9.12412 11.372 9.08539 11.3645 9.04797C11.357 9.01054 11.3415 8.9754 11.3191 8.94522C11.2968 8.91504 11.2681 8.89062 11.2354 8.87381C11.2027 8.857 11.1668 8.84825 11.1304 8.84822H7.56907V5.96987C7.56907 5.8561 7.5904 5.74345 7.63184 5.63835C7.67328 5.53324 7.73402 5.43774 7.8106 5.3573C7.88717 5.27685 7.97808 5.21304 8.07813 5.16951C8.17817 5.12597 8.28541 5.10356 8.3937 5.10356H11.1602C11.2921 5.10356 11.3996 4.99178 11.3996 4.85206V1.05151C11.3996 0.912902 11.2932 0.800003 11.1602 0.800003H8.3937Z" fill="#12372A"/>
</svg>
