<svg width="22" height="22" viewBox="0 0 22 22" fill="none" xmlns="http://www.w3.org/2000/svg">
<path d="M6.7158 0.800003H15.2838C18.5478 0.800003 21.1998 3.452 21.1998 6.716V15.284C21.1998 16.853 20.5765 18.3578 19.467 19.4672C18.3576 20.5767 16.8528 21.2 15.2838 21.2H6.7158C3.4518 21.2 0.799805 18.548 0.799805 15.284V6.716C0.799805 5.14698 1.4231 3.64222 2.53256 2.53276C3.64203 1.42329 5.14678 0.800003 6.7158 0.800003ZM6.5118 2.84C5.53793 2.84 4.60394 3.22687 3.91531 3.91551C3.22668 4.60414 2.8398 5.53813 2.8398 6.512V15.488C2.8398 17.5178 4.482 19.16 6.5118 19.16H15.4878C16.4617 19.16 17.3957 18.7731 18.0843 18.0845C18.7729 17.3959 19.1598 16.4619 19.1598 15.488V6.512C19.1598 4.4822 17.5176 2.84 15.4878 2.84H6.5118ZM16.3548 4.37C16.693 4.37 17.0173 4.50433 17.2564 4.74344C17.4955 4.98255 17.6298 5.30685 17.6298 5.645C17.6298 5.98315 17.4955 6.30746 17.2564 6.54656C17.0173 6.78567 16.693 6.92 16.3548 6.92C16.0167 6.92 15.6924 6.78567 15.4532 6.54656C15.2141 6.30746 15.0798 5.98315 15.0798 5.645C15.0798 5.30685 15.2141 4.98255 15.4532 4.74344C15.6924 4.50433 16.0167 4.37 16.3548 4.37ZM10.9998 5.9C12.3524 5.9 13.6496 6.43732 14.606 7.39376C15.5625 8.35019 16.0998 9.6474 16.0998 11C16.0998 12.3526 15.5625 13.6498 14.606 14.6062C13.6496 15.5627 12.3524 16.1 10.9998 16.1C9.6472 16.1 8.35 15.5627 7.39356 14.6062C6.43712 13.6498 5.8998 12.3526 5.8998 11C5.8998 9.6474 6.43712 8.35019 7.39356 7.39376C8.35 6.43732 9.6472 5.9 10.9998 5.9ZM10.9998 7.94C10.1882 7.94 9.40992 8.26239 8.83606 8.83626C8.2622 9.41012 7.9398 10.1884 7.9398 11C7.9398 11.8116 8.2622 12.5899 8.83606 13.1637C9.40992 13.7376 10.1882 14.06 10.9998 14.06C11.8114 14.06 12.5897 13.7376 13.1636 13.1637C13.7374 12.5899 14.0598 11.8116 14.0598 11C14.0598 10.1884 13.7374 9.41012 13.1636 8.83626C12.5897 8.26239 11.8114 7.94 10.9998 7.94Z" fill="#12372A"/>
</svg>
