<svg width="22" height="15" viewBox="0 0 22 15" fill="none" xmlns="http://www.w3.org/2000/svg">
<path d="M8.9598 10.6857L14.2536 7.59999L8.9598 4.51428V10.6857ZM20.751 2.63199C20.8836 3.11542 20.9754 3.76342 21.0366 4.58628C21.108 5.40914 21.1386 6.11885 21.1386 6.73599L21.1998 7.59999C21.1998 9.85256 21.0366 11.5086 20.751 12.568C20.496 13.4937 19.9044 14.0903 18.9864 14.3474C18.507 14.4811 17.6298 14.5737 16.2834 14.6354C14.9574 14.7074 13.7436 14.7383 12.6216 14.7383L10.9998 14.8C6.726 14.8 4.0638 14.6354 3.0132 14.3474C2.0952 14.0903 1.5036 13.4937 1.2486 12.568C1.116 12.0846 1.0242 11.4366 0.963005 10.6137C0.891605 9.79085 0.861005 9.08114 0.861005 8.46399L0.799805 7.59999C0.799805 5.34742 0.963005 3.69142 1.2486 2.63199C1.5036 1.70628 2.0952 1.10971 3.0132 0.852565C3.4926 0.718851 4.3698 0.626279 5.7162 0.564565C7.0422 0.492565 8.256 0.461708 9.378 0.461708L10.9998 0.399994C15.2736 0.399994 17.9358 0.564565 18.9864 0.852565C19.9044 1.10971 20.496 1.70628 20.751 2.63199Z" fill="#12372A"/>
</svg>
